<svg width="11" height="12" viewBox="0 0 11 12" fill="none" xmlns="http://www.w3.org/2000/svg">
    <path
        d="M5.49224 0.718944C5.58669 0.600887 5.77558 0.600887 5.89363 0.718944L10.8284 5.65371C10.9465 5.77177 10.9465 5.93705 10.8284 6.0551L5.89363 10.9899C5.77558 11.1079 5.58669 11.1079 5.49224 10.9899L5.02001 10.5413C4.90196 10.4232 4.90196 10.2343 5.02001 10.1399L8.67977 6.4565H0.628307C0.463027 6.4565 0.344971 6.33844 0.344971 6.17316V5.51204C0.344971 5.37038 0.463027 5.22871 0.628307 5.22871H8.67977L5.02001 1.56895C4.90196 1.47451 4.90196 1.28562 5.02001 1.16756L5.49224 0.718944Z"
        fill="white" />
</svg>