<svg width="24" height="20" viewBox="0 0 24 20" fill="none" xmlns="http://www.w3.org/2000/svg">
<path d="M20.5856 2.15061C23.6528 4.72709 23.2029 8.93943 21.0354 11.1887L13.8376 18.5092C13.4287 18.9182 12.897 19.1635 12.3245 19.1635C11.711 19.1635 11.1794 18.9182 10.7704 18.5092L3.61353 11.1887C1.40512 8.93943 0.955258 4.72709 4.02249 2.15061C6.39449 0.146684 10.0343 0.43296 12.3245 2.76406C14.5738 0.43296 18.2136 0.146684 20.5856 2.15061ZM19.6041 9.79825C21.1172 8.28508 21.4035 5.42233 19.3178 3.62289C17.7228 2.3142 15.269 2.51868 13.7559 4.07275L12.3245 5.54502L10.8931 4.07275C9.33904 2.51868 6.88525 2.3142 5.29029 3.66378C3.20456 5.42233 3.49084 8.28508 5.00401 9.79825L12.1609 17.1187C12.2836 17.2005 12.3654 17.2005 12.4472 17.1187L19.6041 9.79825Z" fill="#1C1C1C"/>
</svg>
