<svg width="23" height="20" viewBox="0 0 23 20" fill="none" xmlns="http://www.w3.org/2000/svg">
<path d="M19.8756 2.46067C22.9428 5.03715 22.493 9.24949 20.3255 11.4988L13.1277 18.8193C12.7187 19.2282 12.1871 19.4736 11.6145 19.4736C11.0011 19.4736 10.4694 19.2282 10.0605 18.8193L2.90357 11.4988C0.695158 9.24949 0.245297 5.03715 3.31253 2.46067C5.68453 0.456743 9.32432 0.743018 11.6145 3.07412C13.8638 0.743018 17.5036 0.456743 19.8756 2.46067ZM18.8941 10.1083C20.4073 8.59514 20.6935 5.73239 18.6078 3.93294C17.0129 2.62426 14.5591 2.82874 13.0459 4.38281L11.6145 5.85508L10.1831 4.38281C8.62908 2.82874 6.17529 2.62426 4.58032 3.97384C2.4946 5.73239 2.78088 8.59514 4.29405 10.1083L11.4509 17.4288C11.5736 17.5106 11.6554 17.5106 11.7372 17.4288L18.8941 10.1083Z" fill="#1C1C1C"/>
</svg>
